<?xml version="1.0" encoding="utf-8"?>
<!-- Generator: Adobe Illustrator 22.1.0, SVG Export Plug-In . SVG Version: 6.00 Build 0)  -->
<svg version="1.1" id="Layer_1" xmlns="http://www.w3.org/2000/svg" xmlns:xlink="http://www.w3.org/1999/xlink" x="0px" y="0px"
	 viewBox="0 0 30 30" style="enable-background:new 0 0 30 30;" xml:space="preserve">
<style type="text/css">
	.st0{fill:#FFFFFF;}
</style>
<path class="st0" d="M2.8,15.4c0-0.3,0.1-0.5,0.3-0.7c0.2-0.2,0.5-0.3,0.7-0.3h2.3c0.3,0,0.5,0.1,0.7,0.3C6.9,14.9,7,15.1,7,15.4
	c0,0.3-0.1,0.5-0.3,0.7s-0.4,0.3-0.7,0.3H3.8c-0.3,0-0.5-0.1-0.7-0.3C2.8,15.9,2.8,15.6,2.8,15.4z M6.1,7.4c0-0.3,0.1-0.5,0.3-0.7
	c0.2-0.2,0.5-0.3,0.7-0.3c0.3,0,0.5,0.1,0.7,0.3l1.6,1.7C9.6,8.6,9.6,8.8,9.6,9c0,0.3-0.1,0.5-0.3,0.7S9,10,8.7,10
	C8.5,10,8.2,9.9,8,9.7L6.3,8.1C6.2,7.9,6.1,7.7,6.1,7.4z M8.1,20.9c0-0.3,0.1-0.5,0.3-0.7c0.2-0.2,0.4-0.3,0.7-0.3h2.6l3.1-2.9
	c0.1-0.1,0.2-0.1,0.3,0l3.2,2.9h2.8c0.3,0,0.5,0.1,0.7,0.3c0.2,0.2,0.3,0.4,0.3,0.7c0,0.3-0.1,0.5-0.3,0.7s-0.4,0.3-0.7,0.3h-3.4
	c-0.1,0-0.2,0-0.3-0.1L15,19.5l-2.4,2.3c-0.1,0-0.2,0.1-0.3,0.1H9.1c-0.3,0-0.5-0.1-0.7-0.3C8.2,21.4,8.1,21.1,8.1,20.9z M9,15.4
	c0,1,0.2,1.8,0.6,2.6c0,0.1,0.1,0.2,0.3,0.2h1.9c0.1,0,0.1,0,0.1-0.1c0-0.1,0-0.1,0-0.2c-0.6-0.8-1-1.6-1-2.6c0-1.1,0.4-2.1,1.2-2.9
	s1.8-1.2,2.9-1.2c1.1,0,2.1,0.4,2.9,1.2c0.8,0.8,1.2,1.7,1.2,2.9c0,0.9-0.3,1.8-1,2.6c0,0.1,0,0.1,0,0.2s0.1,0.1,0.1,0.1h1.9
	c0.1,0,0.2-0.1,0.2-0.2c0.4-0.8,0.6-1.6,0.6-2.6c0-0.8-0.2-1.6-0.5-2.3c-0.3-0.7-0.8-1.4-1.3-1.9c-0.5-0.5-1.2-1-1.9-1.3
	S15.8,9.4,15,9.4c-0.8,0-1.6,0.2-2.3,0.5c-0.7,0.3-1.4,0.7-1.9,1.3c-0.5,0.5-1,1.2-1.3,1.9C9.2,13.8,9,14.5,9,15.4z M14,6.4V4.1
	c0-0.3,0.1-0.5,0.3-0.7s0.4-0.3,0.7-0.3s0.5,0.1,0.7,0.3S16,3.8,16,4.1v2.3c0,0.3-0.1,0.5-0.3,0.7c-0.2,0.2-0.4,0.3-0.7,0.3
	c-0.3,0-0.5-0.1-0.7-0.3C14.1,6.9,14,6.7,14,6.4z M20.4,9c0-0.3,0.1-0.5,0.3-0.7l1.6-1.7c0.2-0.2,0.4-0.3,0.7-0.3s0.5,0.1,0.7,0.3
	c0.2,0.2,0.3,0.4,0.3,0.7c0,0.3-0.1,0.5-0.3,0.7L22,9.7c-0.2,0.2-0.5,0.3-0.7,0.3c-0.3,0-0.5-0.1-0.7-0.3S20.4,9.3,20.4,9z M23,15.4
	c0-0.3,0.1-0.5,0.3-0.7s0.4-0.3,0.7-0.3h2.4c0.3,0,0.5,0.1,0.7,0.3s0.3,0.4,0.3,0.7c0,0.3-0.1,0.5-0.3,0.7c-0.2,0.2-0.4,0.3-0.7,0.3
	h-2.4c-0.3,0-0.5-0.1-0.7-0.3C23.1,15.9,23,15.6,23,15.4z"/>
</svg>
