<?xml version="1.0" encoding="utf-8"?>
<!-- Generator: Adobe Illustrator 22.1.0, SVG Export Plug-In . SVG Version: 6.00 Build 0)  -->
<svg version="1.1" id="Layer_1" xmlns="http://www.w3.org/2000/svg" xmlns:xlink="http://www.w3.org/1999/xlink" x="0px" y="0px"
	 viewBox="0 0 30 30" style="enable-background:new 0 0 30 30;" xml:space="preserve">
<style type="text/css">
	.st0{fill:#FFFFFF;}
</style>
<path class="st0" d="M2.9,15.5c0-0.3,0.1-0.5,0.3-0.7c0.2-0.2,0.4-0.3,0.7-0.3h2.3c0.3,0,0.5,0.1,0.7,0.3C7,15,7.1,15.2,7.1,15.5
	c0,0.3-0.1,0.5-0.3,0.7s-0.4,0.3-0.7,0.3H3.9c-0.3,0-0.5-0.1-0.7-0.3C3,16,2.9,15.7,2.9,15.5z M6.2,7.6c0-0.3,0.1-0.5,0.3-0.7
	c0.2-0.2,0.4-0.3,0.7-0.3c0.3,0,0.5,0.1,0.7,0.3l1.6,1.6c0.5,0.4,0.5,0.9,0,1.4c-0.2,0.2-0.4,0.3-0.6,0.3c-0.2,0-0.4-0.1-0.7-0.3
	L6.4,8.3C6.3,8.1,6.2,7.9,6.2,7.6z M8.1,20.9c0-0.3,0.1-0.5,0.3-0.7c0.2-0.2,0.4-0.3,0.7-0.3h3.2c0.1,0,0.2,0,0.3,0.1l2.4,2.2
	l2.4-2.2c0.1,0,0.2-0.1,0.3-0.1H21c0.3,0,0.5,0.1,0.7,0.3s0.3,0.4,0.3,0.7c0,0.3-0.1,0.5-0.3,0.7s-0.4,0.3-0.7,0.3h-2.7l-3.1,2.8
	c-0.1,0.1-0.2,0.1-0.3,0l-3.1-2.8H9.1c-0.3,0-0.5-0.1-0.7-0.3C8.2,21.4,8.1,21.2,8.1,20.9z M9.1,15.5c0,1,0.2,1.9,0.6,2.6
	c0.1,0.1,0.1,0.2,0.3,0.2h1.9c0.1,0,0.1,0,0.1-0.1c0,0,0-0.1-0.1-0.2c-0.6-0.7-0.9-1.6-0.9-2.5c0-1.1,0.4-2,1.2-2.8s1.7-1.2,2.9-1.2
	c1.1,0,2,0.4,2.8,1.2c0.8,0.8,1.2,1.7,1.2,2.8c0,0.9-0.3,1.8-0.9,2.5c-0.1,0.1-0.1,0.1-0.1,0.2c0,0,0.1,0.1,0.1,0.1h1.9
	c0.1,0,0.2,0,0.2-0.2c0.4-0.8,0.6-1.7,0.6-2.6c0-0.8-0.2-1.6-0.5-2.3s-0.7-1.4-1.3-1.9s-1.2-0.9-1.9-1.3c-0.7-0.3-1.5-0.5-2.3-0.5
	s-1.6,0.2-2.3,0.5c-0.7,0.3-1.4,0.7-1.9,1.3s-0.9,1.2-1.3,1.9S9.1,14.7,9.1,15.5z M14,6.7V4.3c0-0.3,0.1-0.5,0.3-0.7
	s0.4-0.3,0.7-0.3c0.3,0,0.5,0.1,0.7,0.3S16,4.1,16,4.3v2.3c0,0.3-0.1,0.5-0.3,0.7S15.3,7.6,15,7.6c-0.3,0-0.5-0.1-0.7-0.3
	C14.1,7.2,14,6.9,14,6.7z M20.3,9.2c0-0.3,0.1-0.5,0.3-0.7l1.6-1.6c0.2-0.2,0.4-0.3,0.7-0.3c0.3,0,0.5,0.1,0.7,0.3s0.3,0.4,0.3,0.7
	c0,0.3-0.1,0.5-0.3,0.7l-1.7,1.6c-0.2,0.2-0.5,0.3-0.7,0.3c-0.3,0-0.5-0.1-0.7-0.3C20.4,9.7,20.3,9.5,20.3,9.2z M22.9,15.5
	c0-0.3,0.1-0.5,0.3-0.7s0.4-0.3,0.7-0.3h2.3c0.3,0,0.5,0.1,0.7,0.3s0.3,0.4,0.3,0.7S27,16,26.8,16.2c-0.2,0.2-0.4,0.3-0.7,0.3h-2.3
	c-0.3,0-0.5-0.1-0.7-0.3C23,16,22.9,15.8,22.9,15.5z"/>
</svg>
