<?xml version="1.0" encoding="utf-8"?>
<!-- Generator: Adobe Illustrator 22.1.0, SVG Export Plug-In . SVG Version: 6.00 Build 0)  -->
<svg version="1.1" id="Layer_1" xmlns="http://www.w3.org/2000/svg" xmlns:xlink="http://www.w3.org/1999/xlink" x="0px" y="0px"
	 viewBox="0 0 20 20" style="enable-background:new 0 0 20 20;" xml:space="preserve">
<style type="text/css">
	.st0{fill:#828282;}
</style>
<path class="st0" d="M10,0.3c-4,0-7.3,3.3-7.3,7.3c0,1.6,0.5,3,1.4,4.2c0,0,0,0.1,0,0.1L9,19.2c0.2,0.3,0.6,0.5,1,0.5s0.8-0.2,1-0.5
	l4.9-7.3c0,0,0-0.1,0-0.1c0.9-1.2,1.4-2.6,1.4-4.2C17.3,3.5,14,0.3,10,0.3z M10,10c-1.3,0-2.4-1.1-2.4-2.4S8.7,5.1,10,5.1
	s2.4,1.1,2.4,2.4S11.3,10,10,10z"/>
</svg>
