<?xml version="1.0" encoding="utf-8"?>
<!-- Generator: Adobe Illustrator 22.1.0, SVG Export Plug-In . SVG Version: 6.00 Build 0)  -->
<svg version="1.1" id="Layer_1" xmlns="http://www.w3.org/2000/svg" xmlns:xlink="http://www.w3.org/1999/xlink" x="0px" y="0px"
	 viewBox="0 0 30 30" style="enable-background:new 0 0 30 30;" xml:space="preserve">
<style type="text/css">
	.st0{fill:#FFFFFF;}
</style>
<path class="st0" d="M7.6,17.2c0-0.9,0.2-1.9,0.7-3s1.1-2.3,1.9-3.3c1.6-2.1,2.9-3.6,4.1-4.7l0.8-0.7c0.3,0.3,0.5,0.5,0.8,0.7
	c0.4,0.4,1,1.1,1.9,2.1s1.6,1.9,2.2,2.6c0.7,1,1.3,2.1,1.8,3.3s0.7,2.2,0.7,3c0,1-0.2,2-0.6,2.9s-0.9,1.7-1.6,2.4s-1.5,1.2-2.4,1.6
	s-1.9,0.6-2.9,0.6c-1,0-1.9-0.2-2.9-0.6s-1.7-0.9-2.4-1.5c-0.7-0.6-1.2-1.4-1.6-2.4S7.6,18.2,7.6,17.2z M9.8,14.3
	c0,0.8,0.2,1.5,0.5,2c0.4,0.5,0.9,0.7,1.6,0.7c0.7,0,1.3-0.3,1.6-0.7c0.4-0.5,0.5-1.1,0.5-2c0-0.8-0.2-1.5-0.5-2
	c-0.4-0.5-0.9-0.7-1.6-0.7c-0.7,0-1.2,0.3-1.6,0.7C10,12.8,9.8,13.4,9.8,14.3z M11.4,14.3c0-0.1,0-0.3,0-0.4s0-0.2,0-0.3
	s0-0.3,0.1-0.3s0.1-0.2,0.1-0.2s0.1-0.1,0.1-0.2c0.1,0,0.1-0.1,0.2-0.1c0.1,0,0.3,0,0.3,0.1s0.1,0.2,0.2,0.4c0,0.2,0.1,0.3,0.1,0.4
	s0,0.3,0,0.5c0,0.2,0,0.4,0,0.5c0,0.1,0,0.3-0.1,0.4c0,0.2-0.1,0.3-0.2,0.4s-0.2,0.1-0.3,0.1c-0.1,0-0.2,0-0.2-0.1s-0.1-0.1-0.1-0.2
	c0-0.1-0.1-0.2-0.1-0.2c0-0.1,0-0.2-0.1-0.3c0-0.1,0-0.3,0-0.3S11.4,14.4,11.4,14.3z M12,22h1.3l5-10.7h-1.4L12,22z M16.3,19
	c0,0.8,0.2,1.5,0.5,2c0.4,0.5,0.9,0.7,1.6,0.7c0.7,0,1.3-0.3,1.6-0.7s0.5-1.2,0.5-2c0-0.8-0.2-1.5-0.5-2s-0.9-0.7-1.6-0.7
	c-0.7,0-1.3,0.3-1.6,0.7C16.5,17.5,16.3,18.2,16.3,19z M17.9,19c0-0.2,0-0.4,0-0.5s0-0.3,0.1-0.5s0.1-0.3,0.2-0.4s0.2-0.1,0.3-0.1
	c0.1,0,0.2,0,0.2,0.1c0.1,0,0.1,0.1,0.2,0.2c0,0.1,0.1,0.2,0.1,0.2s0,0.2,0,0.3l0,0.3V19c0,0.2,0,0.3,0,0.4l0,0.3l0,0.3l-0.1,0.2
	l-0.2,0.2l-0.2,0.1c-0.1,0-0.3,0-0.3-0.1S18,20.2,17.9,20c0-0.2,0-0.3-0.1-0.5S17.9,19.3,17.9,19z"/>
</svg>
